<?xml version="1.0" encoding="iso-8859-1"?>
<!-- Generator: Adobe Illustrator 19.0.0, SVG Export Plug-In . SVG Version: 6.00 Build 0)  -->
<svg version="1.1" id="Layer_1" xmlns="http://www.w3.org/2000/svg" xmlns:xlink="http://www.w3.org/1999/xlink" x="0px" y="0px"
	 viewBox="0 0 512 512" style="enable-background:new 0 0 512 512;" xml:space="preserve">
<path style="fill:#5A4146;" d="M418.432,313.703c0.05,6.792-3.971,12.908-10.132,15.765c-38.769,17.983-92.665,29.146-152.3,29.146
	s-113.531-11.162-152.301-29.146c-6.161-2.858-10.182-8.974-10.132-15.765C94.782,150.473,124.642,8.017,256,8.017
	S417.218,150.473,418.432,313.703z"/>
<path style="fill:#E6AF78;" d="M315.858,340.124v-41.368H196.142v41.368c0,11.042-7.065,20.846-17.542,24.337l-81.491,27.164
	c-17.458,5.82-29.234,22.158-29.234,40.561v54.695c0,9.446,7.656,17.102,17.102,17.102h342.046c9.446,0,17.102-7.656,17.102-17.102
	v-54.695c0-18.403-11.776-34.742-29.235-40.561l-81.491-27.164C322.923,360.969,315.858,351.166,315.858,340.124z"/>
<path style="fill:#D29B6E;" d="M196.142,340.124c0,10.35-6.251,19.542-15.655,23.537c95.822,16.331,135.344-52.079,135.344-52.079
	l0.027-0.018v-12.809H196.142V340.124z"/>
<path style="fill:#E4EAF6;" d="M414.89,391.624l-66.588-22.196c-31.692,42.995-68.683,67.021-92.302,74.696
	c-23.618-7.676-60.609-31.701-92.302-74.696L97.11,391.624c-17.459,5.82-29.235,22.158-29.235,40.561v54.695
	c0,9.445,7.658,17.102,17.102,17.102h342.046c9.445,0,17.102-7.658,17.102-17.102v-54.695
	C444.125,413.783,432.349,397.445,414.89,391.624z"/>
<g>
	<path style="fill:#D7DEED;" d="M126.265,451.209l-47.436-47.436c-6.839,7.661-10.954,17.648-10.954,28.413v54.695
		c0,9.446,7.656,17.102,17.102,17.102h51.307v-28.588C136.284,466.324,132.681,457.624,126.265,451.209z"/>
	<path style="fill:#D7DEED;" d="M385.735,451.209l47.436-47.436c6.839,7.661,10.954,17.648,10.954,28.413v54.695
		c0,9.446-7.656,17.102-17.102,17.102h-51.307v-28.588C375.716,466.324,379.319,457.624,385.735,451.209z"/>
</g>
<g>
	<path style="fill:#707487;" d="M146.267,187.677l-9.93-0.032c-9.466-0.03-17.157,7.636-17.157,17.102v33.806
		c0,9.578,7.866,17.289,17.443,17.099l14.739-0.294L146.267,187.677z"/>
	<path style="fill:#707487;" d="M365.733,187.677l9.93-0.032c9.466-0.03,17.157,7.636,17.157,17.102v33.806
		c0,9.578-7.866,17.289-17.443,17.099l-14.739-0.294L365.733,187.677z"/>
</g>
<path style="fill:#F0C087;" d="M144.835,110.63V147.5c0,15.32,0.588,30.635,1.763,45.909l4.928,64.058
	c1.178,15.312,9.152,29.291,21.733,38.097l51.638,36.147c9.112,6.379,19.967,9.801,31.09,9.801h0.026
	c11.123,0,21.978-3.422,31.09-9.801l51.638-36.147c12.581-8.807,20.556-22.786,21.733-38.098l4.928-64.058
	c1.175-15.274,1.763-30.59,1.763-45.909V110.63H144.835z"/>
<path style="fill:#E6AF78;" d="M366.524,110.63H144.835v36.871c0,4.751,0.16,9.499,0.274,14.248l0,0v0.003
	c0.136,5.71,0.353,11.416,0.652,17.119c0,0.001,0,0.003,0,0.003v0.001c0.254,4.845,0.466,9.693,0.838,14.532l4.928,64.058
	c1.178,15.312,9.152,29.291,21.734,38.098l51.638,36.147c9.112,6.378,19.967,9.8,31.09,9.8c-13.722,0-28.803-23.62-38.266-41.533
	c-6.234-11.8-9.56-24.88-9.809-38.223l-1.444-71.012c-0.114-6.157,4.346-11.394,10.413-12.447
	c45.858-7.959,82.26-20.963,103.069-30.151c16.496,27.269,38.225,35.425,41.041,36.387l2.69,0.919h2.548
	c0.3-5.698,0.52-17.811,0.657-23.516L366.524,110.63z"/>
<path style="fill:#5A4146;" d="M136.284,102.079v59.858c101.31,0,178.429-35.27,191.346-43.063
	c13.882,34.511,38.894,43.063,38.894,43.063h9.193v-59.858H136.284z"/>
<path style="fill:#D7DEED;" d="M249.952,463.694l6.048,2.124l6.048-2.124c27.741-9.749,69.228-37.731,106.406-87.547l-20.153-6.718
	c-31.692,42.995-68.683,67.021-92.302,74.696c-23.618-7.676-60.609-31.701-92.302-74.696l-20.153,6.718
	C180.724,425.962,222.211,453.944,249.952,463.694z"/>
<path d="M417.425,384.019l-66.477-22.158c-0.02-0.007-0.041-0.014-0.061-0.02l-9.522-3.174c26.12-5.109,50.186-12.59,70.31-21.925
	c9.048-4.198,14.848-13.263,14.775-23.098C425.446,179.001,406.687,0,256,0S86.554,179.001,85.551,313.644
	c-0.073,9.834,5.727,18.9,14.775,23.097c20.124,9.334,44.189,16.815,70.309,21.924l-9.529,3.177
	c-0.017,0.005-0.033,0.011-0.049,0.016l-66.481,22.16c-20.766,6.922-34.718,26.28-34.718,48.168v54.695
	c0,13.851,11.268,25.119,25.119,25.119h342.046c13.851,0,25.119-11.268,25.119-25.119v-54.695
	C452.142,410.298,438.191,390.94,417.425,384.019z M138.83,195.671l3.906,51.842l-6.271,0.125c-2.456,0.048-4.784-0.873-6.542-2.595
	c-1.757-1.723-2.726-4.028-2.726-6.488v-33.806c0-2.432,0.949-4.717,2.671-6.435c1.722-1.718,3.983-2.649,6.443-2.651
	L138.83,195.671z M154.266,187.139c-0.369-5.481-0.665-11.294-0.897-17.612c81.795-3.128,146.125-27.732,170.463-39.578
	c11.279,22.484,26.854,33.022,34.882,37.225c-0.243,7.209-0.564,13.773-0.979,19.933l-5.255,69.745
	c-0.311,4.042-1.175,7.961-2.538,11.668c-10.848,8.708-29.551,16.743-61.731,18.354c-3.046-7.738-10.578-13.237-19.385-13.237
	h-8.551c-11.493,0-20.843,9.351-20.843,20.843c0,11.493,9.351,20.843,20.843,20.843h8.551c8.475,0,15.772-5.092,19.026-12.371
	c12.315-0.562,22.99-2.027,32.253-4.129l-37.599,26.32c-7.805,5.463-16.967,8.351-26.518,8.351c-9.527,0-18.687-2.888-26.494-8.351
	l-51.638-36.147c-10.656-7.46-17.34-19.175-18.336-32.132L154.266,187.139z M375.535,247.637l-6.271-0.125l3.906-51.842l2.517-0.009
	c2.408-0.007,4.72,0.934,6.443,2.651c1.722,1.717,2.671,4.002,2.671,6.435v33.806c0,2.462-0.968,4.765-2.726,6.488
	C380.319,246.764,378.011,247.693,375.535,247.637z M273.637,294.48c0,2.652-2.158,4.81-4.81,4.81h-8.551
	c-2.652,0-4.81-2.158-4.81-4.81s2.158-4.81,4.81-4.81h8.551C271.479,289.67,273.637,291.828,273.637,294.48z M204.159,340.124
	v-13.143L220.3,338.28c10.514,7.359,22.854,11.249,35.713,11.249c12.833,0,25.174-3.89,35.687-11.249l16.141-11.3v13.144
	c0,14.516,9.252,27.352,23.023,31.942l4.165,1.389c-19.469,23.938-49.238,51.563-79.031,62.201
	c-29.792-10.638-59.562-38.263-79.031-62.201l4.165-1.389C194.906,367.476,204.159,354.639,204.159,340.124z M101.584,313.763
	c0.698-93.765,11.088-162.768,31.762-210.953C158.401,44.419,198.522,16.033,256,16.033s97.599,28.386,122.653,86.777
	c20.675,48.185,31.065,117.188,31.762,210.951c0.027,3.565-2.128,6.875-5.489,8.435c-22.393,10.386-50.12,18.373-80.259,23.143
	c-0.513-1.659-0.794-3.411-0.794-5.215v-24.266c0-0.033-0.004-0.065-0.005-0.098l19.469-13.628
	c8.824-6.176,15.642-14.491,19.973-24.022c5.389-4.915,9.095-9.939,11.64-14.447c0,0,0.608,0.011,0.779,0.011
	c6.611,0,12.833-2.539,17.569-7.182c4.859-4.763,7.535-11.134,7.535-17.938v-33.806c0-6.724-2.623-13.043-7.385-17.79
	c-4.763-4.748-11.094-7.368-17.814-7.329l-1.4,0.004c0.28-5.451,0.501-11.23,0.67-17.48c0.059-2.162-0.76-4.257-2.269-5.808
	c-1.154-1.185-2.637-1.976-4.238-2.282c-4.032-1.707-22.294-10.739-33.332-38.18c-0.877-2.181-2.666-3.866-4.895-4.611
	c-2.23-0.745-4.672-0.475-6.684,0.739c-12.968,7.823-85.499,39.837-178.547,41.723c-2.135,0.044-4.164,0.936-5.637,2.481
	c-1.474,1.545-2.271,3.614-2.214,5.749c0.169,6.324,0.392,12.159,0.674,17.67l-1.4-0.004c-0.028,0-0.055,0-0.082,0
	c-6.694,0-12.988,2.602-17.732,7.329c-4.763,4.747-7.385,11.065-7.385,17.79v33.806c0,6.805,2.675,13.175,7.535,17.938
	c4.736,4.643,10.957,7.182,17.569,7.182c0.172,0,7.954-0.154,7.954-0.154c2.647,15.581,11.344,29.446,24.439,38.613l19.469,13.628
	c0,0.033-0.005,0.065-0.005,0.098v24.266c0,1.804-0.281,3.556-0.794,5.215c-30.139-4.769-57.866-12.756-80.259-23.143
	C103.712,320.637,101.558,317.327,101.584,313.763z M99.645,399.23l61.124-20.375c32.24,41.908,68.772,65.101,92.753,72.894
	c0.805,0.262,1.642,0.392,2.478,0.392c0.836,0,1.673-0.13,2.478-0.392c23.982-7.794,60.513-30.987,92.753-72.894l61.124,20.375
	c3.381,1.128,6.487,2.748,9.275,4.748l-41.564,41.563c-7.974,7.975-12.366,18.577-12.366,29.855v20.571H144.301v-20.571
	c0-11.278-4.392-21.88-12.366-29.855l-41.564-41.563C93.158,401.978,96.265,400.357,99.645,399.23z M75.891,486.881v-54.695
	c0-5.741,1.413-11.221,3.943-16.071l40.762,40.762c4.946,4.947,7.67,11.523,7.67,18.518v20.572h-43.29
	C79.967,495.967,75.891,491.891,75.891,486.881z M436.109,486.881c0,5.01-4.076,9.086-9.086,9.086h-43.29v-20.571
	c0-6.995,2.724-13.571,7.67-18.518l40.762-40.762c2.53,4.85,3.943,10.33,3.943,16.071V486.881z"/>
<g>
</g>
<g>
</g>
<g>
</g>
<g>
</g>
<g>
</g>
<g>
</g>
<g>
</g>
<g>
</g>
<g>
</g>
<g>
</g>
<g>
</g>
<g>
</g>
<g>
</g>
<g>
</g>
<g>
</g>
</svg>
